<mxfile host="app.diagrams.net" modified="2023-10-19T08:50:50.472Z" agent="Mozilla/5.0 (Windows NT 10.0; Win64; x64) AppleWebKit/537.36 (KHTML, like Gecko) Chrome/118.0.0.0 Safari/537.36" etag="wjLqbLAHRRNx5ZD_zGup" version="22.0.5" type="github">
  <diagram name="1 oldal" id="SZkVGr4VHI8cuYks12D8">
    <mxGraphModel dx="1434" dy="796" grid="1" gridSize="10" guides="1" tooltips="1" connect="1" arrows="1" fold="1" page="1" pageScale="1" pageWidth="827" pageHeight="1169" math="0" shadow="0">
      <root>
        <mxCell id="0" />
        <mxCell id="1" parent="0" />
        <mxCell id="VQEg4Eyufkacg4ii3oWg-2" value="&lt;div&gt;&lt;i&gt;&lt;b&gt;kezdőpont&lt;/b&gt;&lt;/i&gt;&lt;/div&gt;&lt;div&gt;&lt;i&gt;&lt;b&gt;&lt;br&gt;&lt;/b&gt;&lt;/i&gt;&lt;/div&gt;" style="shape=umlActor;verticalLabelPosition=bottom;verticalAlign=top;html=1;outlineConnect=0;" parent="1" vertex="1">
          <mxGeometry x="820" y="160" width="30" height="60" as="geometry" />
        </mxCell>
        <mxCell id="VQEg4Eyufkacg4ii3oWg-5" value="" style="endArrow=none;html=1;rounded=0;" parent="1" source="VQEg4Eyufkacg4ii3oWg-10" edge="1">
          <mxGeometry width="50" height="50" relative="1" as="geometry">
            <mxPoint x="890" y="210" as="sourcePoint" />
            <mxPoint x="1000" y="210" as="targetPoint" />
          </mxGeometry>
        </mxCell>
        <mxCell id="VQEg4Eyufkacg4ii3oWg-6" value="" style="endArrow=none;html=1;rounded=0;" parent="1" source="VQEg4Eyufkacg4ii3oWg-8" edge="1">
          <mxGeometry width="50" height="50" relative="1" as="geometry">
            <mxPoint x="670" y="210" as="sourcePoint" />
            <mxPoint x="780" y="210" as="targetPoint" />
          </mxGeometry>
        </mxCell>
        <mxCell id="VQEg4Eyufkacg4ii3oWg-9" value="" style="endArrow=none;html=1;rounded=0;" parent="1" target="VQEg4Eyufkacg4ii3oWg-8" edge="1">
          <mxGeometry width="50" height="50" relative="1" as="geometry">
            <mxPoint x="670" y="210" as="sourcePoint" />
            <mxPoint x="780" y="210" as="targetPoint" />
          </mxGeometry>
        </mxCell>
        <mxCell id="VQEg4Eyufkacg4ii3oWg-8" value="" style="triangle;whiteSpace=wrap;html=1;rotation=-177;" parent="1" vertex="1">
          <mxGeometry x="660" y="200" width="10" height="20" as="geometry" />
        </mxCell>
        <mxCell id="VQEg4Eyufkacg4ii3oWg-11" value="" style="endArrow=none;html=1;rounded=0;" parent="1" target="VQEg4Eyufkacg4ii3oWg-10" edge="1">
          <mxGeometry width="50" height="50" relative="1" as="geometry">
            <mxPoint x="890" y="210" as="sourcePoint" />
            <mxPoint x="1000" y="210" as="targetPoint" />
          </mxGeometry>
        </mxCell>
        <mxCell id="VQEg4Eyufkacg4ii3oWg-10" value="" style="triangle;whiteSpace=wrap;html=1;rotation=-180;direction=west;" parent="1" vertex="1">
          <mxGeometry x="1000" y="200" width="10" height="20" as="geometry" />
        </mxCell>
        <mxCell id="VQEg4Eyufkacg4ii3oWg-12" value="" style="endArrow=classic;html=1;rounded=0;" parent="1" source="VQEg4Eyufkacg4ii3oWg-38" edge="1">
          <mxGeometry width="50" height="50" relative="1" as="geometry">
            <mxPoint x="835" y="250" as="sourcePoint" />
            <mxPoint x="834.5" y="380" as="targetPoint" />
          </mxGeometry>
        </mxCell>
        <mxCell id="VQEg4Eyufkacg4ii3oWg-13" value="&lt;b&gt;&lt;i&gt;&lt;font style=&quot;font-size: 16px;&quot;&gt;szökőkút&lt;/font&gt;&lt;/i&gt;&lt;/b&gt;" style="ellipse;whiteSpace=wrap;html=1;aspect=fixed;" parent="1" vertex="1">
          <mxGeometry x="745" y="390" width="180" height="180" as="geometry" />
        </mxCell>
        <mxCell id="VQEg4Eyufkacg4ii3oWg-16" value="Magdi jósnő" style="shape=ext;double=1;rounded=0;whiteSpace=wrap;html=1;" parent="1" vertex="1">
          <mxGeometry x="1050" y="190" width="120" height="40" as="geometry" />
        </mxCell>
        <mxCell id="VQEg4Eyufkacg4ii3oWg-18" value="" style="endArrow=classic;html=1;rounded=0;fontSize=30;entryX=0;entryY=1;entryDx=0;entryDy=0;" parent="1" target="VQEg4Eyufkacg4ii3oWg-13" edge="1">
          <mxGeometry width="50" height="50" relative="1" as="geometry">
            <mxPoint x="670" y="230" as="sourcePoint" />
            <mxPoint x="660" y="450" as="targetPoint" />
            <Array as="points">
              <mxPoint x="670" y="470" />
            </Array>
          </mxGeometry>
        </mxCell>
        <mxCell id="VQEg4Eyufkacg4ii3oWg-20" value="" style="endArrow=classic;html=1;rounded=0;entryX=0.844;entryY=0.894;entryDx=0;entryDy=0;entryPerimeter=0;" parent="1" target="VQEg4Eyufkacg4ii3oWg-13" edge="1">
          <mxGeometry width="50" height="50" relative="1" as="geometry">
            <mxPoint x="1100" y="250" as="sourcePoint" />
            <mxPoint x="870" y="420" as="targetPoint" />
            <Array as="points">
              <mxPoint x="1100" y="450" />
            </Array>
          </mxGeometry>
        </mxCell>
        <mxCell id="VQEg4Eyufkacg4ii3oWg-22" value="" style="endArrow=classic;html=1;rounded=0;exitX=0.5;exitY=1;exitDx=0;exitDy=0;" parent="1" source="VQEg4Eyufkacg4ii3oWg-13" edge="1">
          <mxGeometry width="50" height="50" relative="1" as="geometry">
            <mxPoint x="820" y="470" as="sourcePoint" />
            <mxPoint x="1050" y="750" as="targetPoint" />
            <Array as="points">
              <mxPoint x="835" y="750" />
            </Array>
          </mxGeometry>
        </mxCell>
        <mxCell id="VQEg4Eyufkacg4ii3oWg-23" value="szerencsekerék" style="shape=ext;double=1;rounded=0;whiteSpace=wrap;html=1;" parent="1" vertex="1">
          <mxGeometry x="710" y="710" width="120" height="40" as="geometry" />
        </mxCell>
        <mxCell id="VQEg4Eyufkacg4ii3oWg-24" value="plüss bolt" style="shape=ext;double=1;rounded=0;whiteSpace=wrap;html=1;" parent="1" vertex="1">
          <mxGeometry x="710" y="600" width="120" height="40" as="geometry" />
        </mxCell>
        <mxCell id="VQEg4Eyufkacg4ii3oWg-25" value="virágok" style="shape=ext;double=1;rounded=0;whiteSpace=wrap;html=1;" parent="1" vertex="1">
          <mxGeometry x="520" y="190" width="120" height="40" as="geometry" />
        </mxCell>
        <mxCell id="VQEg4Eyufkacg4ii3oWg-27" value="kastély" style="shape=ext;double=1;rounded=0;whiteSpace=wrap;html=1;" parent="1" vertex="1">
          <mxGeometry x="1060" y="735" width="120" height="45" as="geometry" />
        </mxCell>
        <mxCell id="VQEg4Eyufkacg4ii3oWg-29" value="fotózkodás" style="shape=ext;double=1;rounded=0;whiteSpace=wrap;html=1;" parent="1" vertex="1">
          <mxGeometry x="700" y="380" width="90" height="30" as="geometry" />
        </mxCell>
        <mxCell id="VQEg4Eyufkacg4ii3oWg-30" value="bohóc" style="shape=ext;double=1;rounded=0;whiteSpace=wrap;html=1;" parent="1" vertex="1">
          <mxGeometry x="910" y="400" width="90" height="30" as="geometry" />
        </mxCell>
        <mxCell id="VQEg4Eyufkacg4ii3oWg-32" value="kisgyerek:&lt;br&gt;megbotlasz" style="shape=ext;double=1;rounded=0;whiteSpace=wrap;html=1;" parent="1" vertex="1">
          <mxGeometry x="1030" y="510" width="120" height="40" as="geometry" />
        </mxCell>
        <mxCell id="VQEg4Eyufkacg4ii3oWg-33" value="szobor" style="ellipse;whiteSpace=wrap;html=1;aspect=fixed;" parent="1" vertex="1">
          <mxGeometry x="910" y="630" width="80" height="80" as="geometry" />
        </mxCell>
        <mxCell id="VQEg4Eyufkacg4ii3oWg-34" value="varázs póni" style="shape=ext;double=1;rounded=0;whiteSpace=wrap;html=1;" parent="1" vertex="1">
          <mxGeometry x="520" y="410" width="120" height="40" as="geometry" />
        </mxCell>
        <mxCell id="VQEg4Eyufkacg4ii3oWg-35" value="balra megy (Játékos szemszögéből)" style="text;html=1;align=center;verticalAlign=middle;resizable=0;points=[];autosize=1;strokeColor=none;fillColor=none;" parent="1" vertex="1">
          <mxGeometry x="861" y="170" width="220" height="30" as="geometry" />
        </mxCell>
        <mxCell id="VQEg4Eyufkacg4ii3oWg-37" value="jobbra megy(Játékos szemszögéből)" style="text;html=1;align=center;verticalAlign=middle;resizable=0;points=[];autosize=1;strokeColor=none;fillColor=none;" parent="1" vertex="1">
          <mxGeometry x="595" y="170" width="230" height="30" as="geometry" />
        </mxCell>
        <mxCell id="VQEg4Eyufkacg4ii3oWg-39" value="" style="endArrow=classic;html=1;rounded=0;" parent="1" target="VQEg4Eyufkacg4ii3oWg-38" edge="1">
          <mxGeometry width="50" height="50" relative="1" as="geometry">
            <mxPoint x="835" y="250" as="sourcePoint" />
            <mxPoint x="834.5" y="380" as="targetPoint" />
          </mxGeometry>
        </mxCell>
        <mxCell id="VQEg4Eyufkacg4ii3oWg-38" value="&lt;div&gt;egyenesen megy&lt;/div&gt;&lt;div&gt;&lt;br&gt;&lt;/div&gt;" style="text;html=1;align=center;verticalAlign=middle;resizable=0;points=[];autosize=1;strokeColor=none;fillColor=none;" parent="1" vertex="1">
          <mxGeometry x="775" y="290" width="120" height="40" as="geometry" />
        </mxCell>
        <mxCell id="VQEg4Eyufkacg4ii3oWg-40" value="&lt;div&gt;behív a sátrába&lt;/div&gt;" style="text;html=1;align=center;verticalAlign=middle;resizable=0;points=[];autosize=1;strokeColor=none;fillColor=none;" parent="1" vertex="1">
          <mxGeometry x="1050" y="230" width="110" height="30" as="geometry" />
        </mxCell>
        <mxCell id="VQEg4Eyufkacg4ii3oWg-41" value="" style="endArrow=none;dashed=1;html=1;rounded=0;exitX=0.695;exitY=0.058;exitDx=0;exitDy=0;exitPerimeter=0;" parent="1" source="VQEg4Eyufkacg4ii3oWg-45" edge="1">
          <mxGeometry width="50" height="50" relative="1" as="geometry">
            <mxPoint x="1050" y="280" as="sourcePoint" />
            <mxPoint x="1070" y="260" as="targetPoint" />
          </mxGeometry>
        </mxCell>
        <mxCell id="VQEg4Eyufkacg4ii3oWg-42" value="" style="endArrow=none;dashed=1;html=1;rounded=0;entryX=0.658;entryY=1.033;entryDx=0;entryDy=0;entryPerimeter=0;" parent="1" edge="1">
          <mxGeometry width="50" height="50" relative="1" as="geometry">
            <mxPoint x="1170" y="270" as="sourcePoint" />
            <mxPoint x="1130" y="260" as="targetPoint" />
          </mxGeometry>
        </mxCell>
        <mxCell id="VQEg4Eyufkacg4ii3oWg-43" value="" style="endArrow=none;dashed=1;html=1;rounded=0;entryX=0.533;entryY=0.967;entryDx=0;entryDy=0;entryPerimeter=0;" parent="1" target="VQEg4Eyufkacg4ii3oWg-40" edge="1">
          <mxGeometry width="50" height="50" relative="1" as="geometry">
            <mxPoint x="1120" y="280" as="sourcePoint" />
            <mxPoint x="1140" y="270" as="targetPoint" />
          </mxGeometry>
        </mxCell>
        <mxCell id="VQEg4Eyufkacg4ii3oWg-48" value="&lt;div&gt;elutasítod:&lt;/div&gt;&lt;div&gt;elátkoz&lt;br&gt;&lt;/div&gt;" style="edgeLabel;html=1;align=center;verticalAlign=middle;resizable=0;points=[];" parent="VQEg4Eyufkacg4ii3oWg-43" vertex="1" connectable="0">
          <mxGeometry x="0.7176" y="-1" relative="1" as="geometry">
            <mxPoint x="20" y="37" as="offset" />
          </mxGeometry>
        </mxCell>
        <mxCell id="VQEg4Eyufkacg4ii3oWg-44" value="" style="endArrow=none;dashed=1;html=1;rounded=0;entryX=0.533;entryY=0.967;entryDx=0;entryDy=0;entryPerimeter=0;exitX=0.667;exitY=-0.008;exitDx=0;exitDy=0;exitPerimeter=0;" parent="1" source="VQEg4Eyufkacg4ii3oWg-46" edge="1">
          <mxGeometry width="50" height="50" relative="1" as="geometry">
            <mxPoint x="1090.5" y="290" as="sourcePoint" />
            <mxPoint x="1089.5" y="259" as="targetPoint" />
          </mxGeometry>
        </mxCell>
        <mxCell id="VQEg4Eyufkacg4ii3oWg-45" value="&lt;div style=&quot;font-size: 10px;&quot;&gt;elfogadod:&lt;/div&gt;&lt;div style=&quot;font-size: 10px;&quot;&gt;átver&lt;br style=&quot;font-size: 10px;&quot;&gt;&lt;/div&gt;" style="text;html=1;align=center;verticalAlign=middle;resizable=0;points=[];autosize=1;strokeColor=none;fillColor=none;fontSize=10;" parent="1" vertex="1">
          <mxGeometry x="980" y="273" width="70" height="40" as="geometry" />
        </mxCell>
        <mxCell id="VQEg4Eyufkacg4ii3oWg-46" value="&lt;div style=&quot;font-size: 10px;&quot;&gt;elfogadod:&lt;/div&gt;&lt;div style=&quot;font-size: 10px;&quot;&gt;nem ver át&lt;br style=&quot;font-size: 10px;&quot;&gt;&lt;/div&gt;" style="text;html=1;align=center;verticalAlign=middle;resizable=0;points=[];autosize=1;strokeColor=none;fillColor=none;fontSize=10;" parent="1" vertex="1">
          <mxGeometry x="1040" y="280" width="70" height="40" as="geometry" />
        </mxCell>
        <mxCell id="VQEg4Eyufkacg4ii3oWg-49" value="&lt;div style=&quot;font-size: 10px;&quot;&gt;elutasítod:&lt;/div&gt;&lt;div style=&quot;font-size: 10px;&quot;&gt;elengedett&lt;/div&gt;" style="text;html=1;align=center;verticalAlign=middle;resizable=0;points=[];autosize=1;strokeColor=none;fillColor=none;fontSize=10;" parent="1" vertex="1">
          <mxGeometry x="1165" y="260" width="70" height="40" as="geometry" />
        </mxCell>
        <mxCell id="RfejrbbT5hm9Z-tXLrb4-1" value="&lt;font style=&quot;font-size: 10px;&quot;&gt;gonosz volt:&lt;br&gt;elijeszt&lt;/font&gt;" style="text;html=1;align=center;verticalAlign=middle;resizable=0;points=[];autosize=1;strokeColor=none;fillColor=none;" parent="1" vertex="1">
          <mxGeometry x="895" y="440" width="80" height="40" as="geometry" />
        </mxCell>
        <mxCell id="RfejrbbT5hm9Z-tXLrb4-3" value="kedves volt:&lt;br style=&quot;font-size: 10px;&quot;&gt;kapsz cukorkát" style="text;html=1;align=center;verticalAlign=middle;resizable=0;points=[];autosize=1;strokeColor=none;fillColor=none;fontSize=10;" parent="1" vertex="1">
          <mxGeometry x="970" y="440" width="90" height="40" as="geometry" />
        </mxCell>
        <mxCell id="RfejrbbT5hm9Z-tXLrb4-7" value="" style="endArrow=none;dashed=1;html=1;rounded=0;" parent="1" target="RfejrbbT5hm9Z-tXLrb4-1" edge="1">
          <mxGeometry width="50" height="50" relative="1" as="geometry">
            <mxPoint x="930" y="430" as="sourcePoint" />
            <mxPoint x="980" y="380" as="targetPoint" />
          </mxGeometry>
        </mxCell>
        <mxCell id="RfejrbbT5hm9Z-tXLrb4-8" value="" style="endArrow=none;dashed=1;html=1;rounded=0;exitX=0.75;exitY=1;exitDx=0;exitDy=0;" parent="1" source="VQEg4Eyufkacg4ii3oWg-30" target="RfejrbbT5hm9Z-tXLrb4-3" edge="1">
          <mxGeometry width="50" height="50" relative="1" as="geometry">
            <mxPoint x="940" y="440" as="sourcePoint" />
            <mxPoint x="942" y="450" as="targetPoint" />
            <Array as="points">
              <mxPoint x="990" y="440" />
            </Array>
          </mxGeometry>
        </mxCell>
        <mxCell id="RfejrbbT5hm9Z-tXLrb4-10" value="" style="endArrow=none;dashed=1;html=1;rounded=0;" parent="1" edge="1">
          <mxGeometry width="50" height="50" relative="1" as="geometry">
            <mxPoint x="1050" y="570" as="sourcePoint" />
            <mxPoint x="1060" y="550" as="targetPoint" />
          </mxGeometry>
        </mxCell>
        <mxCell id="RfejrbbT5hm9Z-tXLrb4-12" value="&lt;font style=&quot;font-size: 10px;&quot;&gt;felsegíted:&lt;br&gt;cukorkát kért tőled&lt;/font&gt;" style="text;html=1;align=center;verticalAlign=middle;resizable=0;points=[];autosize=1;strokeColor=none;fillColor=none;" parent="1" vertex="1">
          <mxGeometry x="971" y="580" width="110" height="40" as="geometry" />
        </mxCell>
        <mxCell id="RfejrbbT5hm9Z-tXLrb4-13" value="ismerősökkel:&lt;br&gt;találkozol" style="shape=ext;double=1;rounded=0;whiteSpace=wrap;html=1;" parent="1" vertex="1">
          <mxGeometry x="1110" y="420" width="120" height="40" as="geometry" />
        </mxCell>
        <mxCell id="ZeIe9nPfyKFeGoANkGUT-1" value="&lt;font style=&quot;font-size: 10px;&quot;&gt;felsegíted:&lt;br&gt;anyja attól még megver&lt;/font&gt;" style="text;html=1;align=center;verticalAlign=middle;resizable=0;points=[];autosize=1;strokeColor=none;fillColor=none;" vertex="1" parent="1">
          <mxGeometry x="886" y="540" width="130" height="40" as="geometry" />
        </mxCell>
        <mxCell id="ZeIe9nPfyKFeGoANkGUT-3" value="nem lökted fel" style="text;html=1;align=center;verticalAlign=middle;resizable=0;points=[];autosize=1;strokeColor=none;fillColor=none;" vertex="1" parent="1">
          <mxGeometry x="1110" y="570" width="100" height="30" as="geometry" />
        </mxCell>
        <mxCell id="ZeIe9nPfyKFeGoANkGUT-4" value="" style="endArrow=none;dashed=1;html=1;rounded=0;exitX=0.37;exitY=-0.033;exitDx=0;exitDy=0;exitPerimeter=0;entryX=0.75;entryY=1;entryDx=0;entryDy=0;" edge="1" parent="1" source="ZeIe9nPfyKFeGoANkGUT-3" target="VQEg4Eyufkacg4ii3oWg-32">
          <mxGeometry width="50" height="50" relative="1" as="geometry">
            <mxPoint x="1060" y="580" as="sourcePoint" />
            <mxPoint x="1070" y="560" as="targetPoint" />
          </mxGeometry>
        </mxCell>
        <mxCell id="ZeIe9nPfyKFeGoANkGUT-5" value="" style="endArrow=none;dashed=1;html=1;rounded=0;exitX=1.031;exitY=0.5;exitDx=0;exitDy=0;exitPerimeter=0;entryX=0;entryY=0.75;entryDx=0;entryDy=0;" edge="1" parent="1" source="ZeIe9nPfyKFeGoANkGUT-1" target="VQEg4Eyufkacg4ii3oWg-32">
          <mxGeometry width="50" height="50" relative="1" as="geometry">
            <mxPoint x="1157" y="579" as="sourcePoint" />
            <mxPoint x="1130" y="560" as="targetPoint" />
          </mxGeometry>
        </mxCell>
        <mxCell id="ZeIe9nPfyKFeGoANkGUT-6" value="" style="endArrow=none;dashed=1;html=1;rounded=0;entryX=0.78;entryY=1.033;entryDx=0;entryDy=0;entryPerimeter=0;" edge="1" parent="1" target="ZeIe9nPfyKFeGoANkGUT-3">
          <mxGeometry width="50" height="50" relative="1" as="geometry">
            <mxPoint x="1200" y="630" as="sourcePoint" />
            <mxPoint x="1130" y="560" as="targetPoint" />
          </mxGeometry>
        </mxCell>
        <mxCell id="ZeIe9nPfyKFeGoANkGUT-7" value="bocsánatot kérsz:&lt;br&gt;tovább mehettél baj nélkül" style="text;html=1;align=center;verticalAlign=middle;resizable=0;points=[];autosize=1;strokeColor=none;fillColor=none;" vertex="1" parent="1">
          <mxGeometry x="1160" y="630" width="160" height="40" as="geometry" />
        </mxCell>
        <mxCell id="ZeIe9nPfyKFeGoANkGUT-9" value="nem kérsz bocsánatot:&lt;br&gt;az anyja rád küldi&amp;nbsp;&lt;br&gt;az őröket -&amp;gt; játék vége" style="text;html=1;align=center;verticalAlign=middle;resizable=0;points=[];autosize=1;strokeColor=none;fillColor=none;" vertex="1" parent="1">
          <mxGeometry x="1030" y="630" width="150" height="60" as="geometry" />
        </mxCell>
        <mxCell id="ZeIe9nPfyKFeGoANkGUT-10" value="" style="endArrow=none;dashed=1;html=1;rounded=0;entryX=0.31;entryY=1.1;entryDx=0;entryDy=0;entryPerimeter=0;exitX=0.62;exitY=0;exitDx=0;exitDy=0;exitPerimeter=0;" edge="1" parent="1" source="ZeIe9nPfyKFeGoANkGUT-9" target="ZeIe9nPfyKFeGoANkGUT-3">
          <mxGeometry width="50" height="50" relative="1" as="geometry">
            <mxPoint x="1210" y="640" as="sourcePoint" />
            <mxPoint x="1198" y="611" as="targetPoint" />
          </mxGeometry>
        </mxCell>
      </root>
    </mxGraphModel>
  </diagram>
</mxfile>
